<svg width="20" height="19" viewBox="0 0 20 19" fill="none" xmlns="http://www.w3.org/2000/svg">
<g id="Icon" clip-path="url(#clip0_5699_304)">
<path id="Vector" d="M11.04 1.56995L12.7 6.49995C12.78 6.74995 13.01 6.90995 13.27 6.90995H18.39C19.44 6.90995 19.89 8.24995 19.06 8.88995L14.93 12.0599C14.73 12.2099 14.64 12.4799 14.72 12.7199L16.24 17.5599C16.55 18.5599 15.43 19.3899 14.57 18.7999L10.35 15.8999C10.14 15.7599 9.87001 15.7599 9.66001 15.8999L5.44001 18.7999C4.58001 19.3899 3.45001 18.5599 3.77001 17.5599L5.29001 12.7199C5.37001 12.4799 5.29001 12.2099 5.08001 12.0599L0.930014 8.89995C0.0900143 8.25995 0.550014 6.91995 1.60001 6.91995H6.72001C6.98001 6.91995 7.21001 6.74995 7.29001 6.49995L8.96001 1.56995C9.30001 0.569946 10.71 0.569946 11.05 1.56995H11.04Z" fill="white" fill-opacity="0.5"/>
</g>
<defs>
<clipPath id="clip0_5699_304">
<rect width="19" height="18.18" fill="white" transform="translate(0.5 0.819946)"/>
</clipPath>
</defs>
</svg>
