<svg width="30" height="30" viewBox="0 0 30 30" fill="none" xmlns="http://www.w3.org/2000/svg">
<g id="element/link">
<path id="Union" fill-rule="evenodd" clip-rule="evenodd" d="M19.0613 4.9624H14.9621V4.9627C11.9027 4.96314 9.42029 7.43372 9.40034 10.4889H9.39941V10.7451C9.39941 10.9068 9.53052 11.038 9.69224 11.038H13.7883V11.0388C16.8604 11.0388 19.3519 8.54805 19.3519 5.47552L14.963 5.47525V5.47484H19.3541V5.25523C19.3541 5.0935 19.223 4.9624 19.0613 4.9624ZM5.87576 12.5764C5.63318 12.5764 5.43652 12.7731 5.43652 13.0156V16.8974V16.9688H5.43684C5.47514 21.3428 9.03285 24.8769 13.416 24.8769C16.7054 24.8769 19.53 22.8864 20.7509 20.0442H21.7653C23.8272 20.0442 25.4988 18.3727 25.4988 16.3107C25.4988 14.2488 23.8272 12.5772 21.7653 12.5772H20.9833C20.9743 12.5767 20.9653 12.5764 20.9562 12.5764H5.87576ZM21.6189 17.9949H21.3206C21.3668 17.6591 21.3921 17.3166 21.3951 16.9688H21.3954V16.8974V14.6275H21.6189C22.5488 14.6275 23.3026 15.3813 23.3026 16.3112C23.3026 17.2411 22.5488 17.9949 21.6189 17.9949Z" fill="#00CB0F"/>
</g>
</svg>
