<svg width="24" height="24" viewBox="0 0 24 24" fill="none" xmlns="http://www.w3.org/2000/svg">
<g clip-path="url(#clip0_3205_5164)">
<path d="M13.04 3.57001L14.7 8.50001C14.78 8.75001 15.01 8.91001 15.27 8.91001H20.39C21.44 8.91001 21.89 10.25 21.06 10.89L16.93 14.06C16.73 14.21 16.64 14.48 16.72 14.72L18.24 19.56C18.55 20.56 17.43 21.39 16.57 20.8L12.35 17.9C12.14 17.76 11.87 17.76 11.66 17.9L7.44001 20.8C6.58001 21.39 5.45001 20.56 5.77001 19.56L7.29001 14.72C7.37001 14.48 7.29001 14.21 7.08001 14.06L2.93001 10.9C2.09001 10.26 2.55001 8.92001 3.60001 8.92001H8.72001C8.98001 8.92001 9.21001 8.75001 9.29001 8.50001L10.96 3.57001C11.3 2.57001 12.71 2.57001 13.05 3.57001H13.04Z" fill="#47F998"/>
</g>
<defs>
<clipPath id="clip0_3205_5164">
<rect width="19" height="18.18" fill="white" transform="translate(2.5 2.82001)"/>
</clipPath>
</defs>
</svg>
