<svg width="24" height="24" viewBox="0 0 24 24" fill="none" xmlns="http://www.w3.org/2000/svg">
<g clip-path="url(#clip0_3205_5173)">
<path d="M17.5 13C15.01 13 13 15.02 13 17.5C13 19.98 15.01 22 17.5 22C19.99 22 22 19.99 22 17.5C22 15.01 19.98 13 17.5 13ZM19.6 18.9C19.8 19.1 19.8 19.41 19.6 19.61C19.5 19.7 19.38 19.75 19.25 19.75C19.12 19.75 18.99 19.7 18.89 19.61L17.5 18.22L16.1 19.61C16 19.7 15.88 19.75 15.75 19.75C15.62 19.75 15.49 19.7 15.39 19.61C15.2 19.41 15.2 19.1 15.39 18.9L16.79 17.51L15.39 16.11C15.2 15.91 15.2 15.6 15.39 15.4C15.59 15.2 15.91 15.2 16.1 15.4L17.5 16.8L18.89 15.4C19.09 15.2 19.41 15.2 19.6 15.4C19.8 15.6 19.8 15.91 19.6 16.11L18.21 17.51L19.6 18.9Z" fill="#47F998"/>
<path d="M11.0004 11.78C13.563 11.78 15.6404 9.7026 15.6404 7.14C15.6404 4.5774 13.563 2.5 11.0004 2.5C8.43775 2.5 6.36035 4.5774 6.36035 7.14C6.36035 9.7026 8.43775 11.78 11.0004 11.78Z" stroke="white" stroke-linecap="round" stroke-linejoin="round"/>
<path d="M11 11.77H9C6.1 11.77 3.59 13.87 2.97 16.83L2.5 19.04" stroke="white" stroke-linecap="round" stroke-linejoin="round"/>
</g>
<defs>
<clipPath id="clip0_3205_5173">
<rect width="20" height="20" fill="white" transform="translate(2 2)"/>
</clipPath>
</defs>
</svg>
